<svg id="Layer_4" data-name="Layer 4" xmlns="http://www.w3.org/2000/svg" viewBox="0 0 32 32"><defs><style>.cls-1{fill:#34a853;}.cls-2{fill:#ea4335;}.cls-3{fill:#fbbc04;}.cls-4{fill:#4285f4;}.cls-5{fill:#c5221f;}</style></defs><path class="cls-1" d="M22.59,15.82V25.1H26.5a1.63,1.63,0,0,0,1.63-1.64V11.68Z"/><polygon class="cls-2" points="22.58 8.63 22.58 15.81 16.01 20.72 16 20.7 15.99 20.72 9.42 15.81 9.42 8.63 16 13.53 22.58 8.63"/><path class="cls-3" d="M28.13,9.34v2.33l-5.55,4.14V8.63l1.66-1.25A2.46,2.46,0,0,1,25.7,6.9h0A2.43,2.43,0,0,1,28.13,9.34Z"/><path class="cls-4" d="M9.41,15.82V25.1H5.5a1.63,1.63,0,0,1-1.63-1.64V11.68Z"/><path class="cls-5" d="M3.87,9.34v2.33l5.55,4.14V8.63L7.76,7.38A2.46,2.46,0,0,0,6.3,6.9h0A2.43,2.43,0,0,0,3.87,9.34Z"/></svg>